<svg width="72" height="72" viewBox="0 0 72 72" fill="none" xmlns="http://www.w3.org/2000/svg">
<path opacity="0.51" fill-rule="evenodd" clip-rule="evenodd" d="M36 6.54545C19.7327 6.54545 6.54545 19.7327 6.54545 36C6.54545 52.2673 19.7327 65.4545 36 65.4545C52.2673 65.4545 65.4545 52.2673 65.4545 36C65.4545 19.7327 52.2673 6.54545 36 6.54545ZM0 36C0 16.1177 16.1177 0 36 0C55.8823 0 72 16.1177 72 36C72 55.8823 55.8823 72 36 72C16.1177 72 0 55.8823 0 36ZM27.9103 20.0236C28.9744 19.4541 30.2657 19.5165 31.2699 20.186L50.9063 33.2769C51.8168 33.8839 52.3636 34.9058 52.3636 36C52.3636 37.0942 51.8168 38.1161 50.9063 38.7231L31.2699 51.814C30.2657 52.4835 28.9744 52.5459 27.9103 51.9764C26.8461 51.4069 26.1818 50.2979 26.1818 49.0909V22.9091C26.1818 21.7021 26.8461 20.5931 27.9103 20.0236ZM32.7273 29.0242V42.9758L43.1909 36L32.7273 29.0242Z" fill="white"/>
</svg>
